# xmcd CD database generated by RipIT
#
# Track frame offsets:
# 150
# 21339
# 43248
# 64950
# 89553
# 108780
# 121020
# 140475
# 147661
# 167582
# 187642
# 195005
# 215975
# 235786
# 256914
# 282243
# 303961
#
# Disc length: 4346 seconds
#
# Revision: 1
# Processed by: cddbd v1.5.2PL0 Copyright (c) Steve Scherf et al.
# Submitted via: RipIT 3.9.0 www.suwald.com/ripit/ripit.html on 2010-11-16 at 22:48
#
DISCID=f110f811
DTITLE=Rufus Beck - Armistead Maupin - Stadtgeschichten CD5
DYEAR=2001
DGENRE=Other
TTITLE0=50 Stadtgeschichten CD5
TTITLE1=51 Stadtgeschichten CD5
TTITLE2=52 Stadtgeschichten CD5
TTITLE3=53 Stadtgeschichten CD5
TTITLE4=54 Stadtgeschichten CD5
TTITLE5=55 Stadtgeschichten CD5
TTITLE6=56 Stadtgeschichten CD5
TTITLE7=57 Stadtgeschichten CD5
TTITLE8=58 Stadtgeschichten CD5
TTITLE9=59 Stadtgeschichten CD5
TTITLE10=60 Stadtgeschichten CD5
TTITLE11=61 Stadtgeschichten CD5
TTITLE12=62 Stadtgeschichten CD5
TTITLE13=63 Stadtgeschichten CD5
TTITLE14=64 Stadtgeschichten CD5
TTITLE15=65 Stadtgeschichten CD5
TTITLE16=66 Stadtgeschichten CD5
EXTD=YEAR: 2001\n
EXTT0=
EXTT1=
EXTT2=
EXTT3=
EXTT4=
EXTT5=
EXTT6=
EXTT7=
EXTT8=
EXTT9=
EXTT10=
EXTT11=
EXTT12=
EXTT13=
EXTT14=
EXTT15=
EXTT16=
PLAYORDER=
